<svg xmlns="http://www.w3.org/2000/svg" version="1.1" xmlns:xlink="http://www.w3.org/1999/xlink" xmlns:svgjs="http://svgjs.dev/svgjs" width="1000" height="1000" viewBox="0 0 1000 1000"><rect width="1000" height="1000" fill="#ffffff"></rect><g transform="matrix(0.7,0,0,0.7,150.0000000000001,106.25)"><svg viewBox="0 0 320 360" data-background-color="#ffffff" preserveAspectRatio="xMidYMid meet" height="1125" width="1000" xmlns="http://www.w3.org/2000/svg" xmlns:xlink="http://www.w3.org/1999/xlink"><g id="tight-bounds" transform="matrix(1,0,0,1,0,0)"><svg viewBox="0 0 320 360" height="360" width="320"><g><svg></svg></g><g><svg viewBox="0 0 320 360" height="360" width="320"><g><path xmlns="http://www.w3.org/2000/svg" d="M20.961 227.22l3.726 4.658-1.863-6.056c-0.466-2.795-3.726 0.466-1.863 1.398M25.153 224.425c1.397 2.329 2.795 4.658 2.795 6.987 0 3.261 2.795 4.658 5.123 5.589-3.261-3.726-5.124-13.974-7.918-12.576M204.017 26.929c7.918 0 15.371-0.932 23.756 0.931 20.495 5.124 37.729 15.371 49.374 29.811l32.606 52.169c1.397 13.042 4.192 27.482 3.726 43.319 3.261 0 2.795-4.658 6.521-5.59-3.726 9.316-5.59 20.961-6.521 34.469-2.329-7.453 0-18.632 0.466-24.687-3.261 5.124-5.124 1.397-5.124-0.932 0.466-3.726-1.397-3.261-2.795-4.658-5.124-4.658-8.384-9.782-12.11-17.7 2.329-6.055 2.795-14.905-4.658-19.563-2.329-1.397-5.124-3.726-6.521-7.453-1.863-5.124-5.124-11.179-4.193-19.097 0.466-2.329-6.987 5.124-11.179 1.863-18.166-12.576-36.332-27.016-58.224-39.127-11.645 0-20.029-4.192-24.221-9.316-3.726-4.658-0.932-10.713 4.658-11.179 3.261 0 6.987-0.932 9.782 0.932 0.466-1.863 2.329-4.192 4.657-4.192M157.904 16.215l0.932 0.466c4.658 0.932 6.987 7.453 12.11 5.124 0 3.261 0.466 6.521-0.466 8.85-1.397 3.726-5.59 3.726-8.85 3.726-31.208-1.863-49.374 11.179-68.471 22.358-5.124 3.261-10.713 5.59-14.906 9.782-20.029 18.632-41.921 35.866-47.045 70.335l-4.192 38.195c-0.466 4.192-5.124 8.384-4.192 13.508l3.26 22.824c-3.261-3.261-5.124 0.932-4.192 2.795 0.466 1.397 2.329 6.055 5.124 1.863 3.726 6.987 7.453 20.495 12.576 26.55 15.837 18.632 36.332 35.4 53.101 52.169 4.192-0.932 7.453-0.932 8.384-3.727 1.397 2.795-1.397 5.59-3.726 6.056 7.453 4.658 15.837 8.85 27.016 9.781 14.44 0.932 27.948 3.261 40.524 6.522 6.521-1.863 13.042-2.795 20.029-3.261 2.329 0 3.726-3.726 6.521-4.658l0.466-4.658c2.795 4.192 2.329-1.397 0.466-4.192 3.261 2.795 4.192 5.124 5.589 6.987 0-1.397 3.726-6.521 3.727-0.466l0.931-6.055c1.397-0.932 1.863 5.124 3.261 0.931 1.397-4.192 4.192-0.932 6.987-2.329-0.932 1.863-0.466 5.59 2.794 3.261l3.727-3.261c2.329 5.59 6.055 3.261 7.918 2.329 20.495-13.042 40.99-28.413 60.553-43.784l-0.466 6.055 2.329-7.453c2.329 2.329 4.192 0.466 5.124-0.931 2.795-4.658 6.521-9.316 12.577-13.508-7.453 20.029-16.303 35.866-27.482 48.908l-4.658 5.59c0 3.261-0.932 7.453-4.658 7.918-1.863 0.466-5.59-0.932-8.384 1.863-1.397 1.863 3.261 5.59-0.466 2.795-3.261-2.329-6.521 0-10.248 0.932-2.795 0.932 1.863 3.726 2.795 5.589 0.932 1.863 1.863 3.726 1.398 6.056l-5.124-5.59c-6.055 3.261-9.782 9.316-14.906 13.974-2.329 1.863-1.397 5.124-1.397 7.918-3.261 0-6.987-0.932-8.85 0.932-1.397 1.863-0.932 4.658-0.932 7.453-4.658-0.466-5.124-7.453-9.315-6.056-4.192 0.932-8.85 1.397-12.577 3.727 2.795 5.59-4.658 2.329-3.726 3.26-6.987-4.192-13.042-7.453-20.495-4.658-15.837-5.124-35.4-2.795-49.84-0.931 0-2.329 0.466-4.658-0.466-5.124-0.932 2.329-3.726 1.397-3.26 1.397-8.85-6.055-17.7-9.782-27.016-14.905-8.384 0.932-16.303-3.261-18.632-5.59-6.521-6.055-13.974-2.795-20.029-4.192-13.042-3.261-17.7-16.769-19.098-26.084-0.932-4.658-4.658-6.521-6.055-6.056-6.055-19.563-15.371-37.263-22.824-55.429-1.863-4.658-1.397-9.316-1.397-14.44 2.329 0.932 4.658 0.466 4.192-2.794-2.329-15.371-7.918-27.016-13.974-38.195 3.261-15.837 3.726-34.469 11.179-48.443 6.521-12.576 18.632-19.098 27.016-29.811 2.795-3.726 2.795-8.85 5.59-12.11 9.316-9.316 18.632-19.098 28.879-27.482 4.658-3.726 10.247 0 17.234-1.397 2.329-8.384 11.645-15.837 20.495-13.508 3.726 0.932 11.179-8.85 13.508-9.782 3.726-1.397 1.863 3.726 1.863 6.987 8.85-6.987 20.961-10.713 32.14-14.906" fill="#124948" fill-rule="nonzero" stroke="none" stroke-width="1" stroke-linecap="butt" stroke-linejoin="miter" stroke-miterlimit="10" stroke-dasharray="" stroke-dashoffset="0" font-family="none" font-weight="none" font-size="none" text-anchor="none" style="mix-blend-mode: normal" data-fill-palette-color="tertiary"></path></g><g transform="matrix(1,0,0,1,64,154.24130273871208)"><svg viewBox="0 0 192 51.51739452257587" height="51.51739452257587" width="192"><g><svg viewBox="0 0 192 51.51739452257587" height="51.51739452257587" width="192"><g><svg viewBox="0 0 192 51.51739452257587" height="51.51739452257587" width="192"><g><svg viewBox="0 0 192 51.51739452257587" height="51.51739452257587" width="192"><g><svg viewBox="0 0 192 51.51739452257587" height="51.51739452257587" width="192"><g><svg viewBox="0 0 192 51.51739452257587" height="51.51739452257587" width="192"><g transform="matrix(1,0,0,1,0,0)"><svg width="192" viewBox="2.5 -25.450000762939453 135.7899932861328 36.25" height="51.51739452257587" data-palette-color="#124948"><g class="undefined-text-0" data-fill-palette-color="primary" id="text-0"><path d="M2.5-24.65L6.9-25.2Q7.3-24.4 7.53-23.53 7.75-22.65 7.85-21.8L7.85-21.8Q9.15-23.45 11.08-24.43 13-25.4 15.15-25.4L15.15-25.4Q17.8-25.4 19.75-24.3 21.7-23.2 22.98-21.33 24.25-19.45 24.88-17.18 25.5-14.9 25.5-12.55L25.5-12.55Q25.5-9.15 24.28-6.13 23.05-3.1 20.58-1.23 18.1 0.65 14.35 0.65L14.35 0.65Q12.65 0.65 10.98 0.1 9.3-0.45 8.05-1.6L8.05-1.6Q8.15-0.9 8.15-0.2 8.15 0.5 8.15 0.9L8.15 0.9 8.15 7.85 8.85 10.8 4.05 10.8 4.05-17.6Q4.05-18.65 3.9-19.95 3.75-21.25 3.43-22.5 3.1-23.75 2.5-24.65L2.5-24.65ZM13.9-21.75L13.9-21.75Q12.2-21.75 10.7-20.73 9.2-19.7 8.15-18.45L8.15-18.45 8.15-10.05Q8.15-8.1 8.78-6.43 9.4-4.75 10.75-3.75 12.1-2.75 14.25-2.75L14.25-2.75Q16.2-2.75 17.53-3.6 18.85-4.45 19.65-5.85 20.45-7.25 20.78-8.93 21.1-10.6 21.1-12.25L21.1-12.25Q21.1-14 20.73-15.68 20.35-17.35 19.5-18.73 18.65-20.1 17.28-20.93 15.9-21.75 13.9-21.75ZM30.25-24.75L34.75-25.3Q35.65-23.1 35.9-20.65L35.9-20.65Q37.2-22.7 39.4-24 41.6-25.3 44.05-25.3L44.05-25.3 43.05-20.9Q40.65-20.9 38.97-19.65 37.3-18.4 36-16.5L36-16.5 36 0 31.85 0 31.85-18Q31.85-19 31.7-20.25 31.55-21.5 31.2-22.7 30.85-23.9 30.25-24.75L30.25-24.75ZM58.5 0.65L58.5 0.65Q54.85 0.65 52.37-1.18 49.9-3 48.67-5.95 47.45-8.9 47.45-12.25L47.45-12.25Q47.45-15.6 48.77-18.63 50.1-21.65 52.65-23.55 55.2-25.45 58.8-25.45L58.8-25.45Q62.5-25.45 64.97-23.65 67.45-21.85 68.67-18.9 69.9-15.95 69.9-12.55L69.9-12.55Q69.9-9.15 68.59-6.13 67.3-3.1 64.75-1.23 62.2 0.65 58.5 0.65ZM58.55-2.5L58.55-2.5Q60.5-2.5 61.82-3.43 63.15-4.35 63.97-5.85 64.8-7.35 65.15-9.08 65.5-10.8 65.5-12.4L65.5-12.4Q65.5-14.05 65.17-15.78 64.84-17.5 64.09-18.98 63.35-20.45 62.02-21.38 60.7-22.3 58.75-22.3L58.75-22.3Q56.8-22.3 55.47-21.38 54.15-20.45 53.35-18.95 52.55-17.45 52.2-15.73 51.85-14 51.85-12.4L51.85-12.4Q51.85-10.85 52.2-9.13 52.55-7.4 53.32-5.9 54.1-4.4 55.4-3.45 56.7-2.5 58.55-2.5ZM74.49-24.7L79.04-25.2Q79.39-24.4 79.64-23.5 79.89-22.6 79.99-21.75L79.99-21.75Q81.34-23.05 83.29-24.25 85.24-25.45 87.24-25.45L87.24-25.45Q89.64-25.45 91.34-24.48 93.04-23.5 94.09-21.3L94.09-21.3Q95.59-22.8 97.64-24.13 99.69-25.45 101.84-25.45L101.84-25.45Q104.59-25.45 106.27-24.3 107.94-23.15 108.69-21.18 109.44-19.2 109.44-16.6L109.44-16.6 109.44 0 105.29 0 105.29-15.25Q105.29-16.75 105.07-18.25 104.84-19.75 103.97-20.75 103.09-21.75 101.14-21.75L101.14-21.75Q99.39-21.75 97.69-20.63 95.99-19.5 94.84-18.35L94.84-18.35 94.84 0 90.69 0 90.69-15.25Q90.69-16.8 90.47-18.28 90.24-19.75 89.37-20.75 88.49-21.75 86.54-21.75L86.54-21.75Q85.44-21.75 84.29-21.23 83.14-20.7 82.09-19.93 81.04-19.15 80.24-18.45L80.24-18.45 80.24 0 76.09 0 76.09-18.05Q76.09-19.1 75.92-20.3 75.74-21.5 75.39-22.65 75.04-23.8 74.49-24.7L74.49-24.7ZM126.19-25.45L126.19-25.45Q130.14-25.45 132.14-23.3 134.14-21.15 134.14-17.25L134.14-17.25 134.14-4.8Q134.14-3.75 134.54-3.38 134.94-3 135.49-3L135.49-3Q135.94-3 136.44-3.13 136.94-3.25 137.39-3.45L137.39-3.45 138.29-0.75Q137.49-0.3 136.27 0.08 135.04 0.45 133.74 0.45L133.74 0.45Q132.44 0.45 131.39-0.28 130.34-1 130.09-2.95L130.09-2.95Q128.64-1.4 126.69-0.43 124.74 0.55 122.59 0.55L122.59 0.55Q119.64 0.55 117.69-1.2 115.74-2.95 115.74-6L115.74-6Q115.74-8.85 117.12-10.55 118.49-12.25 120.69-13.1 122.89-13.95 125.37-14.25 127.84-14.55 129.99-14.55L129.99-14.55 129.99-17.2Q129.99-19.3 129.14-20.75 128.29-22.2 125.84-22.2L125.84-22.2Q123.94-22.2 122.19-21.45 120.44-20.7 118.69-19.25L118.69-19.25 116.64-22.2Q118.69-23.85 121.14-24.65 123.59-25.45 126.19-25.45ZM129.99-9.7L129.99-11.3Q128.64-11.3 126.94-11.18 125.24-11.05 123.64-10.58 122.04-10.1 121.02-9.05 119.99-8 119.99-6.15L119.99-6.15Q119.99-4.5 121.12-3.73 122.24-2.95 123.94-2.95L123.94-2.95Q125.74-2.95 127.09-3.95 128.44-4.95 129.22-6.5 129.99-8.05 129.99-9.7L129.99-9.7Z" fill="#124948" data-fill-palette-color="primary"></path></g></svg></g></svg></g></svg></g></svg></g></svg></g></svg></g></svg></g></svg></g><defs></defs></svg><rect width="320" height="360" fill="none" stroke="none" visibility="hidden"></rect></g></svg></g></svg>